<svg xmlns="http://www.w3.org/2000/svg" viewBox="0 0 24 24" width="17" height="17"><rect width="24" height="24" rx="3" fill="#f7df1e"></rect><path d="M7.5 17.8c.4.65 1.15 1.2 2.15 1.2 1.1 0 1.85-.6 1.85-1.7V12h-1.6v5.25c0 .55-.25.8-.65.8-.4 0-.7-.25-.9-.6l-.85.35zM13.5 17.6c.5.8 1.35 1.4 2.65 1.4 1.35 0 2.35-.7 2.35-1.95 0-1.1-.65-1.6-1.85-2.1l-.4-.15c-.6-.25-.85-.4-.85-.8 0-.35.25-.6.65-.6.4 0 .65.2.9.6l1.25-.8c-.55-.9-1.3-1.2-2.15-1.2-1.25 0-2.1.8-2.1 1.95 0 1.1.65 1.6 1.65 2.05l.4.15c.7.3 1.05.5 1.05.95 0 .4-.35.7-.9.7-.65 0-1.05-.35-1.35-.85l-1.3.65z" fill="black"></path></svg>
