<svg xmlns="http://www.w3.org/2000/svg" viewBox="0 0 24 24" width="17" height="17"><rect width="24" height="24" rx="3" fill="#3178c6"></rect><path d="M14.39 18.18V20c.36.18.8.32 1.3.42.5.1 1.03.15 1.58.15.54 0 1.05-.06 1.53-.17.48-.12.9-.3 1.26-.56.36-.25.64-.58.85-.97.21-.4.31-.87.31-1.43 0-.41-.06-.77-.18-1.08-.12-.31-.3-.59-.53-.83-.23-.24-.51-.46-.84-.65-.33-.2-.7-.38-1.11-.56-.3-.12-.56-.24-.79-.36-.23-.11-.42-.23-.58-.35-.16-.12-.28-.25-.36-.39a.92.92 0 0 1-.12-.47c0-.16.04-.31.11-.44.07-.13.17-.24.31-.33.13-.09.29-.16.48-.21.18-.05.39-.07.62-.07.17 0 .34.01.53.04.18.03.37.07.55.14.18.06.36.14.53.24.17.1.32.21.45.35v-1.7a5.4 5.4 0 0 0-1.09-.31 7.3 7.3 0 0 0-1.24-.1c-.52 0-1.01.06-1.48.18-.46.12-.87.31-1.22.56-.35.25-.62.57-.83.96-.2.39-.31.85-.31 1.39 0 .69.2 1.27.59 1.74.4.47.97.86 1.74 1.18.31.12.6.25.86.37.26.12.49.24.68.38.19.13.34.28.45.44.11.16.16.34.16.55 0 .15-.03.3-.1.43-.07.13-.17.25-.31.35-.13.1-.3.18-.5.24-.2.06-.43.09-.69.09-.44 0-.88-.08-1.31-.25a4.5 4.5 0 0 1-1.17-.76zM8.75 10.1H11.5V8.5H4.5v1.6H7.25V20h1.5V10.1z" fill="white"></path></svg>
